<?xml version="1.0" encoding="UTF-8"?>
<!DOCTYPE svg PUBLIC "-//W3C//DTD SVG 1.1//EN" "http://www.w3.org/Graphics/SVG/1.1/DTD/svg11.dtd">
<svg xmlns="http://www.w3.org/2000/svg" version="1.1" width="72px" height="66px" style="shape-rendering:geometricPrecision; text-rendering:geometricPrecision; image-rendering:optimizeQuality; fill-rule:evenodd; clip-rule:evenodd" xmlns:xlink="http://www.w3.org/1999/xlink">
<g><path style="opacity:1" fill="#030303" d="M -0.5,-0.5 C 23.5,-0.5 47.5,-0.5 71.5,-0.5C 71.5,21.5 71.5,43.5 71.5,65.5C 47.5,65.5 23.5,65.5 -0.5,65.5C -0.5,43.5 -0.5,21.5 -0.5,-0.5 Z"/></g>
<g><path style="opacity:1" fill="#e9e9e9" d="M 29.5,6.5 C 30.8221,6.33003 31.9887,6.66337 33,7.5C 31.3996,19.3614 26.0663,29.3614 17,37.5C 16.2165,40.7603 16.3832,43.9269 17.5,47C 19.1667,47.6667 20.8333,47.6667 22.5,47C 27.5,40.6667 32.5,34.3333 37.5,28C 39.9018,27.1859 42.2351,27.3526 44.5,28.5C 41.8567,32.9768 38.3567,36.6435 34,39.5C 33.1923,41.5787 33.359,43.5787 34.5,45.5C 38.3094,42.8579 41.9761,40.0246 45.5,37C 48.1184,32.4459 51.4518,28.4459 55.5,25C 56.448,24.5172 57.448,24.3505 58.5,24.5C 57.975,29.8791 55.8084,34.5457 52,38.5C 50.2932,40.9088 49.4598,43.5755 49.5,46.5C 53.1823,46.4093 56.349,45.076 59,42.5C 56.4351,48.0532 52.1018,52.0532 46,54.5C 44.0078,53.7708 43.1744,52.2708 43.5,50C 44.0432,47.08 44.5432,44.2467 45,41.5C 42.2031,45.2988 39.0364,48.7988 35.5,52C 30.966,52.481 28.466,50.3143 28,45.5C 25.1312,48.7041 21.9646,51.5374 18.5,54C 16.1913,54.7562 14.1913,54.2562 12.5,52.5C 9.83217,45.4814 9.99883,38.4814 13,31.5C 17.0199,22.1092 22.5199,13.7758 29.5,6.5 Z"/></g>
<g><path style="opacity:1" fill="#1b1a1a" d="M 26.5,14.5 C 28.2252,14.8425 28.7252,15.8425 28,17.5C 25.1672,23.1697 21.8339,28.503 18,33.5C 19.1724,26.4834 22.0057,20.15 26.5,14.5 Z"/></g>
</svg>
